<svg preserveAspectRatio="none" width="100%" height="100%" overflow="visible" style="display: block;" viewBox="0 0 21 17.7949" fill="none" xmlns="http://www.w3.org/2000/svg">
<path id="Vector" d="M18.7491 15.0617C19.2389 14.5719 19.4838 13.9869 19.4838 13.3069C19.4838 12.6269 19.2389 12.0423 18.7491 11.5533C18.2593 11.0643 17.6748 10.8193 16.9955 10.8186C16.3162 10.8178 15.7313 11.0627 15.2407 11.5533C14.7502 12.0439 14.5056 12.6284 14.5072 13.3069C14.5087 13.9854 14.7532 14.5703 15.2407 15.0617C15.7282 15.553 16.3128 15.7976 16.9944 15.7952C17.6759 15.7929 18.2609 15.5484 18.7491 15.0617ZM16.9193 17.7949C16.7829 17.7949 16.6582 17.7452 16.545 17.6459C16.4318 17.5465 16.3686 17.4287 16.3555 17.2924L16.2931 16.7726C15.8542 16.6763 15.493 16.5492 15.2095 16.3913C14.9261 16.2342 14.6566 16.012 14.4009 15.7248L13.8522 15.9396C13.7197 15.9874 13.5965 15.9928 13.4825 15.9558C13.3685 15.9189 13.273 15.8461 13.196 15.7375L13.099 15.5781C13.0235 15.4502 12.99 15.322 12.9985 15.1934C13.0069 15.0648 13.0728 14.9508 13.196 14.8514L13.6096 14.5026C13.4825 14.0936 13.419 13.6951 13.419 13.3069C13.419 12.9188 13.4825 12.5206 13.6096 12.1124L13.196 11.7635C13.0882 11.6788 13.0223 11.5733 12.9985 11.447C12.9754 11.3199 13.0012 11.1929 13.0759 11.0658L13.2029 10.8763C13.2784 10.7685 13.3724 10.6961 13.4848 10.6592C13.5973 10.6222 13.7197 10.6272 13.8522 10.6742L14.4009 10.8902C14.6566 10.5883 14.9261 10.3623 15.2095 10.2121C15.4937 10.0611 15.8549 9.93792 16.2931 9.84242L16.3555 9.31449C16.3686 9.17818 16.4318 9.0615 16.545 8.96446C16.6582 8.86742 16.7829 8.8189 16.9193 8.8189H17.0706C17.2069 8.8189 17.3317 8.86896 17.4449 8.96908C17.5581 9.06766 17.6216 9.18511 17.6355 9.32142L17.6967 9.84127C18.1357 9.93754 18.4969 10.0608 18.7803 10.2109C19.0637 10.3611 19.3333 10.5875 19.589 10.8902L20.1388 10.6742C20.2698 10.6272 20.393 10.6222 20.5085 10.6592C20.6233 10.6961 20.7184 10.7685 20.7939 10.8763L20.892 11.0369C20.9675 11.164 21.0006 11.2918 20.9914 11.4204C20.9829 11.5498 20.9171 11.6642 20.7939 11.7635L20.3803 12.1113C20.5081 12.5202 20.5721 12.9188 20.5721 13.3069C20.5721 13.6951 20.5081 14.0936 20.3803 14.5026L20.7939 14.8514C20.9017 14.9361 20.9675 15.0417 20.9914 15.168C21.0153 15.2943 20.9895 15.4213 20.914 15.5492L20.7869 15.7375C20.7114 15.8453 20.6175 15.9181 20.505 15.9558C20.3926 15.9936 20.2705 15.9882 20.1388 15.9396L19.5901 15.7248C19.3337 16.012 19.0637 16.2346 18.7803 16.3925C18.4961 16.5496 18.1349 16.6767 17.6967 16.7737L17.6355 17.2993C17.6216 17.4356 17.5581 17.5523 17.4449 17.6494C17.3317 17.7464 17.2069 17.7949 17.0706 17.7949H16.9193ZM1.15521 15.0178V1.15521V6.27859V5.77607V15.0178ZM1.86683 16.173C1.33466 16.173 0.89067 15.9951 0.534864 15.6393C0.179058 15.2835 0.000770143 14.8391 0 14.3062V1.86683C0 1.33466 0.178288 0.89067 0.534864 0.534864C0.89144 0.179058 1.33504 0.000770143 1.86567 0H6.84464C7.0934 0 7.33522 0.0500594 7.57012 0.150178C7.80501 0.251837 8.00602 0.386227 8.17314 0.553348L9.93022 2.31043H18.9282C19.4596 2.31043 19.9036 2.48872 20.2601 2.84529C20.6167 3.20187 20.7946 3.64586 20.7939 4.17725V6.50963C20.7939 6.67367 20.7388 6.81076 20.6287 6.92089C20.5185 7.03102 20.3811 7.08647 20.2162 7.08724C20.0514 7.08801 19.914 7.03256 19.8038 6.92089C19.6937 6.80922 19.6386 6.67213 19.6386 6.50963V4.1761C19.6386 3.96893 19.572 3.79873 19.4388 3.66549C19.3056 3.53226 19.1354 3.46564 18.9282 3.46564H9.46698L7.15655 1.15521H1.86567C1.6585 1.15521 1.4883 1.22183 1.35507 1.35507C1.22183 1.4883 1.15521 1.65889 1.15521 1.86683V14.3073C1.15521 14.5145 1.22183 14.6847 1.35507 14.8179C1.4883 14.9512 1.65889 15.0178 1.86683 15.0178H10.1532C10.3172 15.0178 10.4543 15.0728 10.5644 15.183C10.6746 15.2931 10.73 15.4306 10.7308 15.5954C10.7316 15.7602 10.6761 15.8977 10.5644 16.0078C10.4528 16.1179 10.3157 16.173 10.1532 16.173H1.86683Z" fill="var(--fill-0, white)" fill-opacity="0.71"/>
</svg>
