<svg preserveAspectRatio="none" width="100%" height="100%" overflow="visible" style="display: block;" viewBox="0 0 16.3235 17.2056" fill="none" xmlns="http://www.w3.org/2000/svg">
<path id="Vector" d="M14.8436 6.93076H9.9616C9.89229 6.93155 9.82371 6.91662 9.76099 6.88709C9.69828 6.85757 9.64307 6.81422 9.59951 6.76031C9.55595 6.70639 9.52518 6.6433 9.50949 6.57579C9.49381 6.50827 9.49363 6.43808 9.50896 6.37048C9.89013 4.74698 10.7222 0.661765 7.91635 0.661765C7.7798 0.660962 7.64551 0.696597 7.52732 0.764995C7.40914 0.833394 7.31134 0.932079 7.24401 1.05088L6.11462 3.05025C5.05846 4.91815 2.92409 5.71755 1.10471 6.69341C0.832072 6.83988 0.661781 7.12135 0.661781 7.42752V15.7082C0.663878 15.9318 0.754643 16.1454 0.914133 16.3021C1.07362 16.4587 1.28879 16.5457 1.51235 16.5438H12.5601C14.1695 16.5438 17.09 6.93076 14.8436 6.93076Z" stroke="var(--stroke-0, white)" stroke-width="1.3235" stroke-linecap="round" stroke-linejoin="round"/>
</svg>
