<svg preserveAspectRatio="none" width="100%" height="100%" overflow="visible" style="display: block;" viewBox="0 0 61 61" fill="none" xmlns="http://www.w3.org/2000/svg">
<g id="Frame 1000005792">
<rect x="0.236434" y="0.236434" width="60.5271" height="60.5271" rx="30.2636" fill="var(--fill-0, #3F88F7)" fill-opacity="0.24"/>
<rect x="0.236434" y="0.236434" width="60.5271" height="60.5271" rx="30.2636" stroke="var(--stroke-0, #3F88F7)" stroke-width="0.472868"/>
<path id="Vector" d="M34.8795 20.6774C34.2987 20.6774 33.7418 20.9081 33.3311 21.3188C32.9204 21.7295 32.6897 22.2864 32.6897 22.8672C32.6897 23.4479 32.9204 24.0049 33.3311 24.4156C33.7418 24.8262 34.2987 25.0569 34.8795 25.0569C35.4602 25.0569 36.0172 24.8262 36.4279 24.4156C36.8385 24.0049 37.0692 23.4479 37.0692 22.8672C37.0692 22.2864 36.8385 21.7295 36.4279 21.3188C36.0172 20.9081 35.4602 20.6774 34.8795 20.6774ZM23.9308 22.8672C23.9308 22.2864 24.1615 21.7295 24.5721 21.3188C24.9828 20.9081 25.5398 20.6774 26.1205 20.6774C26.7013 20.6774 27.2582 20.9081 27.6689 21.3188C28.0796 21.7295 28.3103 22.2864 28.3103 22.8672C28.3103 23.4479 28.0796 24.0049 27.6689 24.4156C27.2582 24.8262 26.7013 25.0569 26.1205 25.0569C25.5398 25.0569 24.9828 24.8262 24.5721 24.4156C24.1615 24.0049 23.9308 23.4479 23.9308 22.8672ZM31.5949 14.1082C31.5949 13.8178 31.4795 13.5393 31.2742 13.334C31.0689 13.1287 30.7904 13.0133 30.5 13.0133C30.2096 13.0133 29.9311 13.1287 29.7258 13.334C29.5205 13.5393 29.4051 13.8178 29.4051 14.1082V15.2031H22.8359C21.9648 15.2031 21.1293 15.5491 20.5133 16.1651C19.8973 16.7811 19.5513 17.6166 19.5513 18.4877V27.2467C19.5513 28.1178 19.8973 28.9533 20.5133 29.5692C21.1293 30.1852 21.9648 30.5313 22.8359 30.5313H38.1641C39.0352 30.5313 39.8707 30.1852 40.4867 29.5692C41.1027 28.9533 41.4487 28.1178 41.4487 27.2467V18.4877C41.4487 17.6166 41.1027 16.7811 40.4867 16.1651C39.8707 15.5491 39.0352 15.2031 38.1641 15.2031H31.5949V14.1082ZM22.8359 17.3928H38.1641C38.4545 17.3928 38.733 17.5082 38.9383 17.7135C39.1436 17.9188 39.259 18.1973 39.259 18.4877V27.2467C39.259 27.537 39.1436 27.8155 38.9383 28.0209C38.733 28.2262 38.4545 28.3415 38.1641 28.3415H22.8359C22.5455 28.3415 22.267 28.2262 22.0617 28.0209C21.8564 27.8155 21.741 27.537 21.741 27.2467V18.4877C21.741 18.1973 21.8564 17.9188 22.0617 17.7135C22.267 17.5082 22.5455 17.3928 22.8359 17.3928ZM31.0474 48.0449C36.7758 47.9726 40.2334 46.742 42.2633 44.8916C44.1793 43.1398 44.6479 41.0004 44.7224 39.2946H44.7333V37.7837C44.7328 36.7329 44.3149 35.7254 43.5717 34.9826C42.8285 34.2397 41.8207 33.8225 40.7699 33.8225H33.7846V33.8159H27.2154V33.8225H20.2301C18.0404 33.8225 16.2667 35.5962 16.2667 37.7859V39.2946H16.2776C16.3521 41.0026 16.8207 43.142 18.7367 44.8894C20.7666 46.742 24.2242 47.9726 29.9526 48.0449V48.0492H31.0474V48.0449ZM20.2301 36.0122H40.7699C41.2403 36.0122 41.6915 36.1991 42.0241 36.5317C42.3567 36.8643 42.5436 37.3155 42.5436 37.7859V38.7428C42.5436 40.2537 42.2567 41.9311 40.7874 43.2734C39.2809 44.6464 36.3247 45.8595 30.5 45.8595C24.6753 45.8595 21.7191 44.6464 20.2126 43.2734C18.7455 41.9311 18.4564 40.2516 18.4564 38.7428V37.7837C18.457 37.3137 18.6441 36.8631 18.9767 36.5309C19.3093 36.1988 19.7601 36.0122 20.2301 36.0122Z" fill="var(--fill-0, #3F88F7)"/>
</g>
</svg>
