<svg preserveAspectRatio="none" width="100%" height="100%" overflow="visible" style="display: block;" viewBox="0 0 17 17" fill="none" xmlns="http://www.w3.org/2000/svg">
<g id="Group 234">
<circle id="Ellipse 17" cx="8.5" cy="9.44518" r="5.66667" fill="var(--fill-0, white)"/>
<path id="Vector" d="M8.02778 12.75H8.97222V7.55556H8.02778V12.75ZM8.90989 6.04444C9.02448 5.933 9.08178 5.7948 9.08178 5.62983C9.08178 5.46487 9.02574 5.32698 8.91367 5.21617C8.80159 5.10535 8.6637 5.04963 8.5 5.049C8.3363 5.04837 8.19841 5.10409 8.08633 5.21617C7.97426 5.32824 7.91854 5.46644 7.91917 5.63078C7.9198 5.79511 7.97678 5.933 8.09011 6.04444C8.20344 6.15589 8.34007 6.21161 8.5 6.21161C8.65993 6.21161 8.79656 6.15589 8.90989 6.04444ZM8.50378 17C7.32763 17 6.22231 16.7771 5.18783 16.3313C4.15335 15.8849 3.2533 15.2792 2.48767 14.5142C1.72204 13.7492 1.11602 12.8501 0.669611 11.8169C0.223204 10.7837 0 9.67898 0 8.50283C0 7.32669 0.223204 6.22169 0.669611 5.18783C1.11539 4.15335 1.72015 3.2533 2.48389 2.48767C3.24763 1.72204 4.14706 1.11602 5.18217 0.669611C6.21728 0.223204 7.32228 0 8.49717 0C9.67205 0 10.7771 0.223204 11.8122 0.669611C12.8466 1.11539 13.7467 1.72046 14.5123 2.48483C15.278 3.2492 15.884 4.14863 16.3304 5.18311C16.7768 6.21759 17 7.32228 17 8.49717C17 9.67206 16.7771 10.7771 16.3313 11.8122C15.8856 12.8473 15.2799 13.7473 14.5142 14.5123C13.7486 15.2773 12.8495 15.8834 11.8169 16.3304C10.7843 16.7774 9.68056 17.0006 8.50378 17Z" fill="var(--fill-0, #2F3949)"/>
</g>
</svg>
