<svg preserveAspectRatio="none" width="100%" height="100%" overflow="visible" style="display: block;" viewBox="0 0 19.9636 19.9637" fill="none" xmlns="http://www.w3.org/2000/svg">
<g id="Group 228">
<circle id="Ellipse 16" cx="9.98182" cy="9.98182" r="9.98182" fill="var(--fill-0, white)"/>
<path id="Vector" d="M9.98252 5.20536C10.1408 5.20536 10.2926 5.26823 10.4045 5.38014C10.5164 5.49205 10.5793 5.64384 10.5793 5.8021V9.38254H14.1597C14.318 9.38254 14.4697 9.44541 14.5817 9.55732C14.6936 9.66923 14.7564 9.82101 14.7564 9.97928C14.7564 10.1375 14.6936 10.2893 14.5817 10.4012C14.4697 10.5131 14.318 10.576 14.1597 10.576H10.5793V14.1564C10.5793 14.3147 10.5164 14.4665 10.4045 14.5784C10.2926 14.6903 10.1408 14.7532 9.98252 14.7532C9.82426 14.7532 9.67248 14.6903 9.56057 14.5784C9.44866 14.4665 9.38579 14.3147 9.38579 14.1564V10.576H5.80535C5.64709 10.576 5.4953 10.5131 5.38339 10.4012C5.27148 10.2893 5.20861 10.1375 5.20861 9.97928C5.20861 9.82101 5.27148 9.66923 5.38339 9.55732C5.4953 9.44541 5.64709 9.38254 5.80535 9.38254H9.38579V5.8021C9.38579 5.64384 9.44866 5.49205 9.56057 5.38014C9.67248 5.26823 9.82426 5.20536 9.98252 5.20536Z" fill="var(--fill-0, #3F88F7)"/>
</g>
</svg>
