<svg preserveAspectRatio="none" width="100%" height="100%" overflow="visible" style="display: block;" viewBox="0 0 19 19.2167" fill="none" xmlns="http://www.w3.org/2000/svg">
<path id="Vector" d="M9.60837 0C14.1799 0 16.5351 3.20616 17.5551 4.99924V5.00213V2.38403C17.5551 2.19243 17.6312 2.00868 17.7667 1.87319C17.9022 1.73771 18.086 1.6616 18.2776 1.6616C18.4692 1.6616 18.6529 1.73771 18.7884 1.87319C18.9239 2.00868 19 2.19243 19 2.38403V6.71863C19 6.91023 18.9239 7.09399 18.7884 7.22947C18.6529 7.36495 18.4692 7.44107 18.2776 7.44107H13.943C13.7514 7.44107 13.5676 7.36495 13.4321 7.22947C13.2966 7.09399 13.2205 6.91023 13.2205 6.71863C13.2205 6.52703 13.2966 6.34328 13.4321 6.20779C13.5676 6.07231 13.7514 5.9962 13.943 5.9962H16.4469L16.2851 5.69567C15.3604 4.06875 13.3809 1.44487 9.60981 1.44487C4.63947 1.44487 1.44487 5.51217 1.44487 9.60837C1.44487 13.7046 4.63802 17.7719 9.60837 17.7719C12.0141 17.7719 13.9863 16.8269 15.3893 15.3979L15.6667 15.1032C16.2893 14.4008 16.7894 13.5988 17.1462 12.7307L17.2156 12.6007C17.3155 12.4521 17.4671 12.3458 17.641 12.3027C17.8148 12.2595 17.9985 12.2824 18.1563 12.3671C18.3142 12.4517 18.435 12.5919 18.4953 12.7605C18.5556 12.9292 18.5512 13.1142 18.4827 13.2798L18.2949 13.7075C17.8946 14.5634 17.3729 15.3571 16.746 16.064L16.4195 16.4108C14.755 18.1056 12.4172 19.2167 9.60837 19.2167C3.73932 19.2167 0 14.3981 0 9.60837C0 4.82008 3.73932 0 9.60837 0Z" fill="var(--fill-0, white)"/>
</svg>
