<svg preserveAspectRatio="none" width="100%" height="100%" overflow="visible" style="display: block;" viewBox="0 0 15.129 15.2938" fill="none" xmlns="http://www.w3.org/2000/svg">
<g id="Group">
<path id="Vector" fill-rule="evenodd" clip-rule="evenodd" d="M7.31119 9.86734C6.64439 9.43351 6.1772 8.7526 6.01236 7.97435C5.84752 7.19611 5.99853 6.38426 6.43219 5.71734L8.61219 2.36334C9.04608 1.69632 9.72718 1.22898 10.5056 1.06414C10.8911 0.982518 11.2889 0.977615 11.6762 1.04971C12.0636 1.12181 12.4329 1.2695 12.7632 1.48434C13.0935 1.69918 13.3782 1.97697 13.6011 2.30185C13.824 2.62673 13.9808 2.99234 14.0624 3.37779C14.144 3.76325 14.1489 4.16101 14.0768 4.54836C14.0047 4.93571 13.857 5.30507 13.6422 5.63534L11.4622 8.98834C11.0285 9.6553 10.3477 10.1227 9.56942 10.2877C8.79116 10.4528 7.97923 10.3019 7.31219 9.86834M6.00219 10.0613C5.40112 9.4073 5.03487 8.57179 4.96117 7.68656C4.88748 6.80134 5.11054 5.91677 5.59519 5.17234L7.77519 1.81934C8.0616 1.37895 8.43195 0.99929 8.86509 0.70203C9.29823 0.40477 9.78568 0.195735 10.2996 0.0868579C10.8135 -0.0220188 11.3439 -0.0286041 11.8603 0.0674778C12.3768 0.16356 12.8693 0.360427 13.3097 0.64684C13.7501 0.933253 14.1297 1.3036 14.427 1.73674C14.7243 2.16988 14.9333 2.65733 15.0422 3.17126C15.151 3.68518 15.1576 4.21552 15.0616 4.73199C14.9655 5.24846 14.7686 5.74095 14.4822 6.18134L12.3022 9.53434C11.9698 10.046 11.5248 10.4748 11.0012 10.788C10.4776 11.1012 9.8893 11.2905 9.2813 11.3413C8.6733 11.3922 8.06173 11.3033 7.49338 11.0814C6.92502 10.8596 6.41495 10.5106 6.00219 10.0613Z" fill="var(--fill-0, black)"/>
<path id="Vector_2" fill-rule="evenodd" clip-rule="evenodd" d="M2.36319 13.8073C2.03288 13.5925 1.74813 13.3147 1.52519 12.9899C1.30225 12.665 1.1455 12.2994 1.06387 11.9139C0.982246 11.5284 0.977353 11.1307 1.04947 10.7433C1.12159 10.356 1.26931 9.9866 1.48419 9.65634L3.66519 6.30334C3.87996 5.97307 4.15769 5.68833 4.48251 5.46539C4.80733 5.24244 5.17288 5.08566 5.55829 5.00399C5.9437 4.92232 6.34142 4.91737 6.72874 4.9894C7.11607 5.06144 7.48541 5.20906 7.81569 5.42384C8.14596 5.63862 8.4307 5.91634 8.65364 6.24116C8.87658 6.56598 9.03336 6.93153 9.11503 7.31694C9.1967 7.70235 9.20166 8.10007 9.12962 8.4874C9.05759 8.87472 8.90996 9.24407 8.69519 9.57434L6.51519 12.9273C6.08151 13.5943 5.40067 14.0617 4.62242 14.2267C3.84416 14.3918 3.03223 14.2409 2.36519 13.8073M1.05519 14.0003C0.453886 13.3462 0.0874838 12.5105 0.0137876 11.6251C-0.0599085 10.7396 0.163296 9.85486 0.648188 9.11034L2.82819 5.75834C3.11453 5.31795 3.48482 4.93828 3.9179 4.64099C4.35098 4.34371 4.83837 4.13463 5.35225 4.02571C5.86613 3.91679 6.39643 3.91015 6.91288 4.00617C7.42932 4.10219 7.9218 4.29899 8.36219 4.58534C8.80258 4.87169 9.18225 5.24197 9.47954 5.67505C9.77682 6.10813 9.98589 6.59553 10.0948 7.1094C10.2037 7.62328 10.2104 8.15358 10.1144 8.67003C10.0183 9.18648 9.82153 9.67895 9.53519 10.1193L7.35519 13.4723C7.02289 13.984 6.57794 14.4129 6.05439 14.7262C5.53083 15.0395 4.94255 15.2289 4.33455 15.2798C3.72655 15.3308 3.11495 15.242 2.54655 15.0202C1.97815 14.7985 1.46802 14.4496 1.05519 14.0003Z" fill="var(--fill-0, black)"/>
</g>
</svg>
