<svg preserveAspectRatio="none" width="100%" height="100%" overflow="visible" style="display: block;" viewBox="0 0 20.0988 19.5015" fill="none" xmlns="http://www.w3.org/2000/svg">
<g id="Group">
<g id="Vector">
<path d="M10.8219 18.9475L10.8329 18.9455C10.8416 18.9468 10.8472 18.9528 10.8499 18.9635L10.8669 19.3905L10.8629 19.4075L10.8509 19.4235L10.7469 19.4975L10.7349 19.5015L10.7199 19.4975L10.6159 19.4235L10.6059 19.4105L10.6009 19.3905L10.6179 18.9625L10.6219 18.9525C10.6272 18.9458 10.6352 18.9441 10.6459 18.9475L10.7169 18.9825L10.7309 18.9865L10.7509 18.9825L10.8219 18.9475Z" fill="var(--fill-0, white)"/>
<path d="M11.0849 18.8345L11.0979 18.8325C11.1079 18.8351 11.1146 18.8425 11.1179 18.8545L11.1519 19.4685L11.1479 19.4825C11.1412 19.4911 11.1316 19.4938 11.1189 19.4905L10.9179 19.3975L10.9099 19.3905L10.9049 19.3785L10.8869 18.9485L10.8899 18.9375L10.8999 18.9275L11.0849 18.8345Z" fill="var(--fill-0, white)"/>
<path d="M10.3682 18.832C10.3732 18.8309 10.3785 18.8318 10.3829 18.8345L10.5669 18.9265L10.5769 18.9365L10.5799 18.9485L10.5629 19.3785L10.5589 19.3895L10.5489 19.3975L10.3479 19.4905L10.3329 19.4925C10.3222 19.4885 10.3166 19.4805 10.3159 19.4685L10.3499 18.8545L10.3559 18.8405C10.3587 18.8362 10.3632 18.8332 10.3682 18.832Z" fill="var(--fill-0, white)"/>
</g>
<path id="Vector_2" fill-rule="evenodd" clip-rule="evenodd" d="M18.0169 0.117465C18.264 0.013456 18.5345 -0.022416 18.8002 0.0135823C19.0659 0.0495806 19.317 0.156133 19.5276 0.32215C19.7381 0.488167 19.9003 0.707579 19.9973 0.957548C20.0942 1.20752 20.1224 1.47891 20.0789 1.74347L17.8109 15.5005C17.5909 16.8275 16.1349 17.5885 14.9179 16.9275C13.8999 16.3745 12.3879 15.5225 11.0279 14.6335C10.3479 14.1885 8.26489 12.7635 8.52089 11.7495C8.74089 10.8825 12.2409 7.62447 14.2409 5.68747C15.0259 4.92647 14.6679 4.48747 13.7409 5.18747C11.4389 6.92547 7.74289 9.56847 6.52089 10.3125C5.44289 10.9685 4.88089 11.0805 4.20889 10.9685C2.98289 10.7645 1.84589 10.4485 0.917888 10.0635C-0.336112 9.54347 -0.275112 7.81947 0.916888 7.31747L18.0169 0.117465Z" fill="var(--fill-0, white)"/>
</g>
</svg>
